<?xml version="1.0" encoding="utf-8"?>
<!-- Generator: Adobe Illustrator 17.0.0, SVG Export Plug-In . SVG Version: 6.00 Build 0)  -->
<!DOCTYPE svg PUBLIC "-//W3C//DTD SVG 1.1//EN" "http://www.w3.org/Graphics/SVG/1.1/DTD/svg11.dtd">
<svg version="1.1" id="Capa_1" xmlns="http://www.w3.org/2000/svg" xmlns:xlink="http://www.w3.org/1999/xlink" x="0px" y="0px"
	 width="64px" height="64px" viewBox="0 0 64 64" enable-background="new 0 0 64 64" xml:space="preserve">
<g>
	<path fill="#1D1D1B" d="M27.286,37.997c-0.02,0.115,0.042,0.318,0.121,0.404c0.004,0.005,0.643,0.667,1.385,1.337
		c0.597,0.539,1.031,0.874,1.351,1.084c-0.057,0.145-0.126,0.282-0.208,0.404c-0.336,0.501-0.842,0.744-1.547,0.744
		c-1.652,0-1.862-1.483-1.87-1.544c-0.046-0.388-0.415-0.684-0.857-0.674c-0.205,0.024-0.388,0.127-0.515,0.289
		c-0.128,0.163-0.184,0.365-0.159,0.569c0.121,1.004,0.988,2.902,3.401,2.902c0.632,0,1.204-0.134,1.699-0.398
		c0.664-0.355,1.208-0.355,1.874,0c0.495,0.265,1.066,0.398,1.699,0.398c2.413,0,3.28-1.898,3.401-2.906
		c0.046-0.418-0.255-0.801-0.67-0.853c-0.016-0.002-0.083-0.006-0.1-0.006c-0.17,0-0.338,0.058-0.47,0.162
		c-0.186,0.144-0.254,0.389-0.326,0.648c-0.026,0.095-0.052,0.192-0.085,0.275c-0.057,0.143-0.125,0.275-0.205,0.393
		c-0.335,0.5-0.841,0.744-1.547,0.744c-1.118,0-1.568-0.671-1.754-1.15c0.32-0.209,0.753-0.545,1.347-1.081
		c0.696-0.63,1.317-1.267,1.383-1.336c0.098-0.105,0.144-0.246,0.124-0.398c-0.018-0.112-0.136-0.282-0.235-0.338
		c-0.062-0.036-1.554-0.874-3.385-0.874c-1.826,0-3.522,0.826-3.584,0.856C27.412,37.712,27.312,37.844,27.286,37.997z"/>
	<path fill="#1D1D1B" d="M11.648,29.954l0.048,0.033c0.013,0.132,0.02,0.477-0.049,1.359c-0.039,0.506-0.058,1.018-0.058,1.533
		c0,10.719,8.717,19.439,19.432,19.439c10.719,0,19.439-8.72,19.439-19.439c0-0.483-0.019-0.961-0.056-1.436
		c-0.062-0.802,0.021-1.252,0.018-1.285c0.114-0.078,0.227-0.157,0.344-0.242c4.56-3.41,5.996-9.231,3.202-12.978
		c-1.425-1.91-3.78-3.005-6.459-3.005c-1.605,0-3.271,0.393-4.817,1.136c-1.037,0.499-2.669,0.554-3.651,0.109
		c-2.531-1.148-5.229-1.73-8.02-1.73c-2.718,0-5.351,0.555-7.824,1.648c-0.987,0.435-2.638,0.385-3.686-0.101
		c-1.501-0.694-3.113-1.062-4.662-1.062c-2.68,0-5.034,1.095-6.458,3.004C5.599,20.684,7.035,26.506,11.648,29.954z M14.218,32.879
		c0-9.265,7.538-16.803,16.802-16.803c9.265,0,16.803,7.538,16.803,16.803c0,9.265-7.538,16.802-16.803,16.802
		C21.756,49.682,14.218,42.144,14.218,32.879z"/>
	<path fill="#1D1D1B" d="M22.89,36.49c0.442,0.177,0.912,0.267,1.396,0.267c2.038,0,4.029-1.554,4.954-3.867
		c0.559-1.398,0.656-2.889,0.271-4.196c-0.394-1.34-1.242-2.331-2.389-2.789c-0.442-0.177-0.912-0.267-1.396-0.267
		c-2.038,0-4.029,1.554-4.954,3.867C19.605,32.423,20.555,35.557,22.89,36.49z"/>
	<path fill="#1D1D1B" d="M38.076,36.755c0.483,0,0.953-0.09,1.395-0.267c1.656-0.662,2.683-2.481,2.616-4.637
		c-0.042-1.341-0.862-3.394-1.757-4.394c-1.417-1.583-3.448-2.213-5.091-1.556c-1.656,0.662-2.683,2.482-2.616,4.637
		c0.042,1.34,0.862,3.393,1.757,4.393C35.415,36.09,36.763,36.755,38.076,36.755z"/>
</g>
</svg>
